inDegrees=no
num_controls=7
num_derivatives=13
num_iterations=98
num_multipliers=7
num_parameters=0
num_slacks=7
num_states=26
objective=0.447078
objective_accelerations=0.055334
objective_balance=0.003220
objective_effort=0.021640
objective_height=0.361349
objective_ligament=0.005535
solver_duration=1398.717674
status=Solve_Succeeded
success=true
DataType=double
version=3
OpenSimVersion=4.5
endheader
time	/jointset/ground_pelvis/pelvis_tilt/value	/jointset/ground_pelvis/pelvis_tx/value	/jointset/ground_pelvis/pelvis_ty/value	/jointset/hip_l/hip_flexion_l/value	/jointset/hip_l/hip_adduction_l/value	/jointset/hip_l/hip_rotation_l/value	/jointset/back/lumbar_extension/value	/jointset/patellofemoral_l/patellar_flexion_l/value	/jointset/knee_l/knee_flexion_l/value	/jointset/knee_l/knee_adduction_l/value	/jointset/knee_l/knee_rotation_l/value	/jointset/ankle_l/ankle_angle_l/value	/jointset/subtalar_l/subtalar_angle_l/value	/jointset/ground_pelvis/pelvis_tilt/speed	/jointset/ground_pelvis/pelvis_tx/speed	/jointset/ground_pelvis/pelvis_ty/speed	/jointset/hip_l/hip_flexion_l/speed	/jointset/hip_l/hip_adduction_l/speed	/jointset/hip_l/hip_rotation_l/speed	/jointset/back/lumbar_extension/speed	/jointset/patellofemoral_l/patellar_flexion_l/speed	/jointset/knee_l/knee_flexion_l/speed	/jointset/knee_l/knee_adduction_l/speed	/jointset/knee_l/knee_rotation_l/speed	/jointset/ankle_l/ankle_angle_l/speed	/jointset/subtalar_l/subtalar_angle_l/speed	/forceset/tau_hip_flexion_l	/forceset/tau_hip_adduction_l	/forceset/tau_hip_rotation_l	/forceset/tau_knee_flexion_l	/forceset/tau_ankle_angle_l	/forceset/tau_subtalar_angle_l	/forceset/tau_lumbar_extension	lambda_cid13_p0	lambda_cid13_p1	lambda_cid13_p2	lambda_cid13_p3	lambda_cid13_p4	lambda_cid13_p5	lambda_cid14_p0	/jointset/ground_pelvis/pelvis_tilt/accel	/jointset/ground_pelvis/pelvis_tx/accel	/jointset/ground_pelvis/pelvis_ty/accel	/jointset/hip_l/hip_flexion_l/accel	/jointset/hip_l/hip_adduction_l/accel	/jointset/hip_l/hip_rotation_l/accel	/jointset/back/lumbar_extension/accel	/jointset/patellofemoral_l/patellar_flexion_l/accel	/jointset/knee_l/knee_flexion_l/accel	/jointset/knee_l/knee_adduction_l/accel	/jointset/knee_l/knee_rotation_l/accel	/jointset/ankle_l/ankle_angle_l/accel	/jointset/subtalar_l/subtalar_angle_l/accel	gamma_cid13_p0	gamma_cid13_p1	gamma_cid13_p2	gamma_cid13_p3	gamma_cid13_p4	gamma_cid13_p5	gamma_cid14_p0
0.5	-0.3163264803075195	-0.02768940501248951	0.7675237295487609	1.049216488041624	-0.4371552853844545	-0.2272818280902618	-0.2532858655067617	0.7947363675862271	0.7947363675858934	-0.1316097292850113	-0.1582215533479282	0.1199227160083324	-0.02627063221048426	-0.711865979385066	-0.1925428360324538	-0.5026209242943072	2.34456242321627	-0.2116538942283799	0.7363758690201783	-0.1233462035643562	1.959951952379037	1.959951952379108	0.1185296021191051	-0.08836716380904554	0.4945217310870026	0.01267627586170449	-0.1585343951269707	0.02428089844158883	-0.0112330829703152	-0.2207476754672317	0.06102943175535198	0.03970614305383709	0.1603425645252732	-13.23980048847057	-18.15382760549462	6.245043779455523	-5.648572581663316	-523.314280572747	-61.36314874423483	-25.72530030187215	0.6985505497034319	0.5544925749311146	-0.4444760756039427	-1.251684563231722	0.7167193765477349	-0.212778892245425	1.060090286077221	-1.225277680305369	-1.225277680305429	0.09325143595877539	0.1529018331378296	-0.4682339364100994	0.544719926768942	-5.335263265993908e-07	-5.096120357145803e-07	2.576917639046174e-06	1.130805445703036e-07	-6.046329228009471e-07	-1.553368634775217e-07	-4.308927371822416e-07
0.51	-0.3234084938651296	-0.02958690063615022	0.7624764076836013	1.072594906881313	-0.4392370419188333	-0.2199277635877808	-0.254467350320437	0.8142714545275582	0.8142714545273519	-0.1304237807159148	-0.159097149856582	0.124843216895869	-0.02611851083774638	-0.7044335429280889	-0.1869421323635048	-0.5067349876756212	2.330794124895108	-0.2046840455702972	0.7343577293471619	-0.1129826234944324	1.946793372170564	1.946793372170575	0.11863369099797	-0.08672838754455726	0.4894936874427661	0.01772786040850764	-0.1637660107741286	0.02540490400537519	-0.0113224830506418	-0.2232550595177968	0.05993089184426937	0.03996216812207169	0.1643570720813089	-13.77803215702048	-18.14665577652933	6.216345352993237	-5.42947398349047	-526.7124934071095	-60.90190017203245	-24.82781921717965	0.7810118143883629	0.5650027941523148	-0.3787151476221677	-1.48855265240887	0.6888633769399144	-0.2085830048217669	1.019712218864356	-1.40187600504455	-1.401876005053607	-0.03496022089122722	0.1734128249251876	-0.5328090227180979	0.482155177694977	-4.93872928823776e-07	-4.436292359623879e-07	2.443066265077128e-06	1.124263830969811e-07	-5.543169823730081e-07	-8.30506826696951e-08	-4.055411391679343e-07
0.52	-0.3304130987340299	-0.03142796051686629	0.7573911764489829	1.095825812700622	-0.4412487508133302	-0.2125963307820296	-0.25554615526313	0.8336668101040201	0.8336668101039395	-0.1292375808249818	-0.1599555491422223	0.1297108934581059	-0.02591651812772864	-0.696384241643376	-0.1812556874435273	-0.5102027981860122	2.31505981913993	-0.1976443662521598	0.7318495296744646	-0.1028102293679349	1.932005679405038	1.932005679404988	0.1185798664871725	-0.08492771920723573	0.4839568660270226	0.02265054331766979	-0.1689976264212897	0.02652890956916084	-0.0114118831310043	-0.225762443568359	0.05883235193318723	0.04021819319030617	0.1683715796373418	-14.31894943547623	-18.13911957560236	6.187711181821615	-5.244124840868111	-530.1807813029347	-60.49512882372989	-23.9314027935558	0.8219235152505462	0.5716408251368262	-0.315225501419332	-1.644886050034922	0.7306855085586776	-0.3107908921816567	1.021853097391929	-1.551100191716204	-1.551100191716146	0.06166875802630029	0.1852802477044728	-0.569989490711501	0.5189395992407456	-4.811215244667289e-07	-3.368257905233577e-07	2.500249812738052e-06	1.367162104373642e-07	-5.343742050343626e-07	-1.233967383520937e-08	-3.991228422766022e-07
0.53	-0.337334297350965	-0.03321174947138586	0.7522745237434715	1.118889845269773	-0.4431896765826624	-0.2052922969813901	-0.2565241915414924	0.8529064005497157	0.8529064005497328	-0.1280525664838705	-0.1607950874680966	0.1345208618875266	-0.02566579647720402	-0.6877579112775544	-0.1754895028044002	-0.5130149684295395	2.29742584479929	-0.190530055529074	0.728848864800961	-0.09284137118839214	1.915657322568493	1.915657322568497	0.1184236107885224	-0.08297663727679969	0.4779676379795462	0.02747970270244375	-0.1740143623108887	0.02713096837420712	-0.01147039294804766	-0.2285962657688991	0.05807168722293429	0.04050579105318115	0.1722024635490086	-14.75280290882151	-18.16539777191724	6.166015566982629	-5.119117079236961	-533.660156714697	-60.21310497118933	-23.03726054871061	0.8975633320006937	0.5810272766143116	-0.2474013926477102	-1.870850888614042	0.7031122492823539	-0.3113005886919702	0.9777504456415874	-1.714887354162246	-1.714887354154246	-0.05413766768223151	0.201024155515366	-0.6237594007929224	0.462541131434738	-4.661547723375518e-07	-2.390548392062467e-07	2.531295990851349e-06	1.601211968996383e-07	-5.160533731157575e-07	5.567463516391794e-08	-3.900665895164537e-07
0.54	-0.3441663175572903	-0.03493749258085139	0.747133111614159	1.141767898543011	-0.4450591975657431	-0.1980215890902375	-0.2574038695845782	0.8719748706421399	0.8719748706422532	-0.1268690876865244	-0.1616149145766996	0.1392688640486674	-0.02536725582816383	-0.6785485595216288	-0.1696465184327199	-0.5151546829461953	2.27786395995723	-0.1833634090020362	0.7251843477771676	-0.08313858231260567	1.897781608750402	1.897781608750459	0.1182727577350111	-0.08098547575427695	0.471563612370981	0.03221434302077841	-0.1790310982004973	0.02773302717925501	-0.01152890276515554	-0.2314300879694349	0.05731102251268345	0.04079338891606007	0.1760333474606649	-15.19049251762984	-18.1918022516336	6.145253183251874	-5.025004887867208	-537.2246126160884	-59.98793162978522	-22.14707120854703	0.9385277932712829	0.5870007716474757	-0.1807343560449668	-2.030468150318836	0.7411526693490778	-0.4435613222396338	0.9686392366406646	-1.85657158802545	-1.856571588025428	0.06274928705407991	0.1932961661218075	-0.6529490029292557	0.5000357859528869	-4.487369971413372e-07	-1.512772856410465e-07	2.533424228188549e-06	1.82547210475494e-07	-4.995270340023038e-07	1.207053613664784e-07	-3.780917472844234e-07
0.55	-0.3509035187797788	-0.03660452273364326	0.7419736727741593	1.164441054163318	-0.4468567709221564	-0.1907904290162789	-0.258187903349152	0.8908570812389185	0.8908570812389928	-0.125687229119105	-0.1624143619556613	0.1439507811429515	-0.02502181710692761	-0.6688013972291317	-0.1637558101321479	-0.5166189526230712	2.256462421480324	-0.1761474947935931	0.720954435576472	-0.07372862565880252	1.8784162559358	1.878416255935833	0.1180861536254968	-0.07889270421068965	0.4647515423881182	0.03685119779433358	-0.1839232335129279	0.02836661434848473	-0.01152726841963901	-0.2342203928154723	0.05649019115246938	0.0408160379645595	0.1797138200246331	-15.65025901901382	-18.08832003762049	6.09126968572946	-4.789853149608014	-540.6974092464804	-59.55031483422967	-21.26439087890629	1.006294362466682	0.5907001142168115	-0.112251511437857	-2.240777423659165	0.7120528504366986	-0.4270078089158607	0.9181056212375445	-2.013081016606262	-2.013081016610004	-0.06122433934772215	0.2194685435248176	-0.7055584862023258	0.4419001552309914	-4.286027357106943e-07	-6.930693082022254e-08	2.522142148634515e-06	2.017689963227895e-07	-4.798035380075848e-07	1.839866798521561e-07	-3.649131467087695e-07
0.5600000000000001	-0.3575405515962959	-0.03821252695243844	0.7368029955898049	1.186891038253401	-0.4485821367257155	-0.1836044283923144	-0.2588796511988901	0.9095383255298657	0.9095383255299004	-0.1245076084086613	-0.1631924414401754	0.1485625330393596	-0.02463073187152098	-0.6585148783275275	-0.1578413316333778	-0.5174023518171009	2.233229653912108	-0.1689218984313596	0.7161524577785235	-0.06468139934550485	1.857588347584048	1.857588347584054	0.1178251863402414	-0.07671189686519801	0.4575305727957538	0.04134364585485499	-0.1888153688253604	0.02900020151771461	-0.01152563407414731	-0.2370106976615083	0.05566935979225569	0.04083868701305968	0.1833942925885993	-16.11277467561545	-17.98441815030355	6.037291328432938	-4.588851665283898	-544.2406931012508	-59.16447974054339	-20.39328291955816	1.04639911509272	0.5917548112870985	-0.0445602594757051	-2.396713968581173	0.7430891001071512	-0.5579744416901739	0.8960931685395642	-2.149082695455691	-2.149082695455937	0.04787665190584139	0.2109033265026724	-0.7347289248295689	0.4711544433461348	-4.052086907987377e-07	5.694785507350064e-09	2.494767688811001e-06	2.171457088958131e-07	-4.56243453755348e-07	2.451687090775747e-07	-3.502900361207674e-07
0.5700000000000001	-0.3640722368891707	-0.0397613447728002	0.7316278846986968	1.20909991700134	-0.4502351433265998	-0.1764692134943618	-0.2594827274279857	0.9280041530314841	0.9280041530315813	-0.1233308374467017	-0.1639482200456488	0.1531001087960116	-0.02419534854535534	-0.6477407651128052	-0.1519251641345985	-0.5175051050435503	2.20825695896998	-0.1616810458811587	0.7107870050419144	-0.05600558716774088	1.835345336591709	1.835345336591707	0.1175231830957229	-0.07444136551298985	0.4499207170821243	0.04570651521532691	-0.1935409666936379	0.02932595135320506	-0.01146223166142413	-0.2398350726925636	0.05476839057503303	0.04086236489383251	0.1869024284075889	-16.59730578154602	-17.87553205796272	5.980716260006753	-4.295760470795386	-547.6821061441709	-58.84401626412066	-19.53572868205469	1.105073389103262	0.5911531335694393	0.02398676661200475	-2.590983603762341	0.7140068357549888	-0.5416462324302458	0.8425641382568515	-2.296614319633986	-2.296614319635294	-0.07003946479350587	0.2359934252867945	-0.7836669230493929	0.4145795959800482	-3.774601764286256e-07	8.48040660461737e-08	2.448470892721798e-06	2.312861137913807e-07	-4.290103143157872e-07	3.018848599862703e-07	-3.318704963933724e-07
0.58	-0.3704937498570091	-0.04125107983529491	0.7264551701994924	1.231050381530513	-0.4518158567013256	-0.169390816232334	-0.2600011977561304	0.9462406096194766	0.9462406096196363	-0.1221572466476208	-0.1646811202604582	0.1575596753898433	-0.0237171912428685	-0.6364804133204348	-0.1460247800599663	-0.5169230734363318	2.181546810158502	-0.1544632531998202	0.7047889305939465	-0.04776021915549721	1.811714164858929	1.811714164858917	0.117189153764692	-0.07213621873250611	0.4419287402317045	0.04989844111909154	-0.1982665645619127	0.02965170118869224	-0.01139882924870039	-0.2426594477236195	0.05386742135780871	0.04088604277460048	0.1904105642265824	-17.08437669921974	-17.76627958467228	5.924173853272104	-4.036832153013419	-551.1899882863257	-58.5725113762354	-18.6933717838615	1.143646830622296	0.5885981264576748	0.09239670725785486	-2.744204742451197	0.7384771263346639	-0.6844987839619396	0.8100043354354997	-2.426714843544108	-2.426714843544125	0.04147143460335777	0.2178264121577799	-0.8111531521876368	0.4369657520046791	-3.440407250897534e-07	1.692627325345325e-07	2.377531054054027e-06	2.438164435721218e-07	-3.969936611438981e-07	3.527849833196988e-07	-3.085067698797917e-07
